<mxfile host="app.diagrams.net" modified="2023-08-15T23:29:44.905Z" agent="Mozilla/5.0 (Windows NT 10.0; Win64; x64) AppleWebKit/537.36 (KHTML, like Gecko) Chrome/115.0.0.0 Safari/537.36 Edg/115.0.1901.203" etag="piFji7KHIzarQdY7g2Gq" version="21.6.6" type="github" pages="2">
  <diagram name="Página-1" id="tESKYNNmowuRRf9zNqwW">
    <mxGraphModel dx="1851" dy="641" grid="0" gridSize="10" guides="1" tooltips="1" connect="1" arrows="1" fold="1" page="0" pageScale="1" pageWidth="827" pageHeight="1169" math="0" shadow="0">
      <root>
        <mxCell id="0" />
        <mxCell id="1" parent="0" />
        <mxCell id="dHgoY7iqLfbEEOLfW-AG-10" value="" style="rounded=0;whiteSpace=wrap;html=1;fontSize=16;" vertex="1" parent="1">
          <mxGeometry x="-109" y="75" width="703" height="268" as="geometry" />
        </mxCell>
        <mxCell id="dHgoY7iqLfbEEOLfW-AG-2" value="ENTRADA PRODUCTOS FRESCOS" style="rounded=0;whiteSpace=wrap;html=1;fontSize=16;" vertex="1" parent="1">
          <mxGeometry x="-239" y="191" width="120" height="60" as="geometry" />
        </mxCell>
        <mxCell id="dHgoY7iqLfbEEOLfW-AG-3" value="REGISTRO" style="rounded=0;whiteSpace=wrap;html=1;fontSize=16;" vertex="1" parent="1">
          <mxGeometry x="-91" y="126" width="224" height="185" as="geometry" />
        </mxCell>
        <mxCell id="dHgoY7iqLfbEEOLfW-AG-5" value="UNIDADES&lt;br&gt;DIA&amp;nbsp;&lt;br&gt;REFERENCIA" style="rounded=0;whiteSpace=wrap;html=1;fontSize=16;" vertex="1" parent="1">
          <mxGeometry x="-42" y="235" width="120" height="60" as="geometry" />
        </mxCell>
        <mxCell id="dHgoY7iqLfbEEOLfW-AG-6" value="GESTION DE INVENTARIO POR DIA" style="rounded=0;whiteSpace=wrap;html=1;fontSize=16;" vertex="1" parent="1">
          <mxGeometry x="159" y="188.5" width="120" height="60" as="geometry" />
        </mxCell>
        <mxCell id="dHgoY7iqLfbEEOLfW-AG-7" value="SALIDA DEL REGISTRO" style="rounded=0;whiteSpace=wrap;html=1;fontSize=16;" vertex="1" parent="1">
          <mxGeometry x="309" y="128.5" width="224" height="185" as="geometry" />
        </mxCell>
        <mxCell id="dHgoY7iqLfbEEOLfW-AG-8" value="UNIDADES&lt;br&gt;DIA&amp;nbsp;&lt;br&gt;REFERENCIA" style="rounded=0;whiteSpace=wrap;html=1;fontSize=16;" vertex="1" parent="1">
          <mxGeometry x="358" y="237.5" width="120" height="60" as="geometry" />
        </mxCell>
      </root>
    </mxGraphModel>
  </diagram>
  <diagram id="VFmA77z9ysZdsGZfys1j" name="Página-2">
    <mxGraphModel dx="1016" dy="449" grid="0" gridSize="10" guides="1" tooltips="1" connect="1" arrows="1" fold="1" page="0" pageScale="1" pageWidth="827" pageHeight="1169" math="0" shadow="0">
      <root>
        <mxCell id="0" />
        <mxCell id="1" parent="0" />
      </root>
    </mxGraphModel>
  </diagram>
</mxfile>
